<svg version="1.1" id="Layer_1" xmlns="http://www.w3.org/2000/svg" xmlns:xlink="http://www.w3.org/1999/xlink" x="0px" y="0px"
	 width="100%" viewBox="0 0 1280 720" enable-background="new 0 0 1280 720" xml:space="preserve">
<path fill="#020202" opacity="1.000000" stroke="none" 
	d="
M744.000000,721.000000 
	C496.030914,721.000000 248.561813,721.000000 1.046359,721.000000 
	C1.046359,481.060883 1.046359,241.121750 1.046359,1.091313 
	C427.552521,1.091313 854.105042,1.091313 1280.828857,1.091313 
	C1280.828857,240.999908 1280.828857,480.999939 1280.828857,721.000000 
	C1102.121582,721.000000 923.310791,721.000000 744.000000,721.000000 
M760.151184,205.423920 
	C712.786133,195.134506 665.426575,184.819351 618.054138,174.564178 
	C582.727844,166.916748 547.392944,159.307983 512.041626,151.777222 
	C505.433044,150.369446 505.414673,150.583206 503.967926,157.245926 
	C499.938660,175.802094 495.909760,194.358383 491.838074,212.905273 
	C472.585785,300.601349 453.308105,388.291840 434.080933,475.993378 
	C432.668579,482.435608 431.583923,488.949646 430.372253,495.297668 
	C431.569946,495.799927 432.005280,496.062500 432.475891,496.168365 
	C488.376312,508.742065 544.280701,521.298218 600.181824,533.868896 
	C639.995605,542.822021 679.799255,551.820740 719.619446,560.745483 
	C737.006958,564.642395 754.433533,568.365662 771.820251,572.266052 
	C774.911377,572.959473 776.234924,572.211975 776.937744,568.931519 
	C780.811584,550.850403 784.949280,532.826050 788.955811,514.773193 
	C802.923828,451.834625 816.873718,388.892029 830.833252,325.951599 
	C837.794800,294.563782 844.696167,263.162384 851.799988,231.806793 
	C852.855042,227.149994 851.983887,225.147141 846.948181,224.100876 
	C818.248047,218.137817 789.622131,211.818161 760.151184,205.423920 
z"/>
<path fill="#BB1123" opacity="1.000000" stroke="none" 
	d="
M760.561035,205.521805 
	C789.622131,211.818161 818.248047,218.137817 846.948181,224.100876 
	C851.983887,225.147141 852.855042,227.149994 851.799988,231.806793 
	C844.696167,263.162384 837.794800,294.563782 830.833252,325.951599 
	C816.873718,388.892029 802.923828,451.834625 788.955811,514.773193 
	C784.949280,532.826050 780.811584,550.850403 776.937744,568.931519 
	C776.234924,572.211975 774.911377,572.959473 771.820251,572.266052 
	C754.433533,568.365662 737.006958,564.642395 719.619446,560.745483 
	C679.799255,551.820740 639.995605,542.822021 600.181824,533.868896 
	C544.280701,521.298218 488.376312,508.742065 432.475891,496.168365 
	C432.005280,496.062500 431.569946,495.799927 430.372253,495.297668 
	C431.583923,488.949646 432.668579,482.435608 434.080933,475.993378 
	C453.308105,388.291840 472.585785,300.601349 491.838074,212.905273 
	C495.909760,194.358383 499.938660,175.802094 503.967926,157.245926 
	C505.414673,150.583206 505.433044,150.369446 512.041626,151.777222 
	C547.392944,159.307983 582.727844,166.916748 618.054138,174.564178 
	C665.426575,184.819351 712.786133,195.134506 760.561035,205.521805 
M612.767334,271.780029 
	C603.498047,269.733337 594.202026,267.798340 584.972412,265.586273 
	C581.154053,264.671112 579.496399,265.283173 578.540771,269.626099 
	C567.839294,318.260956 556.870483,366.836975 545.999878,415.434662 
	C544.230042,423.346954 544.317688,423.233063 551.923401,424.945740 
	C600.499573,435.884033 649.079468,446.807709 697.599915,457.988861 
	C701.995544,459.001770 703.403748,458.117737 704.333740,453.916016 
	C715.273682,404.484039 726.290833,355.068726 737.498474,305.696899 
	C738.599670,300.846313 737.670166,299.069000 732.667664,297.995300 
	C692.940735,289.469055 653.275146,280.657196 612.767334,271.780029 
z"/>
<path fill="#030202" opacity="1.000000" stroke="none" 
	d="
M613.179016,271.856506 
	C653.275146,280.657196 692.940735,289.469055 732.667664,297.995300 
	C737.670166,299.069000 738.599670,300.846313 737.498474,305.696899 
	C726.290833,355.068726 715.273682,404.484039 704.333740,453.916016 
	C703.403748,458.117737 701.995544,459.001770 697.599915,457.988861 
	C649.079468,446.807709 600.499573,435.884033 551.923401,424.945740 
	C544.317688,423.233063 544.230042,423.346954 545.999878,415.434662 
	C556.870483,366.836975 567.839294,318.260956 578.540771,269.626099 
	C579.496399,265.283173 581.154053,264.671112 584.972412,265.586273 
	C594.202026,267.798340 603.498047,269.733337 613.179016,271.856506 
z"/>
</svg>